PathFileType	3	(X/Y/Z)	random_1__fused_aligned.trc
DataRate	CameraRate	NumFrames	NumMarkers	Units	OrigDataRate	OrigDataStartFrame	OrigNumFrames
100.0	100.0	7	19	mm	100.0	1102	1870
Frame#	Time	pelvis			neck			head			hip_left			hip_right			knee_left			knee_right			ankle_left			ankle_right			heel_left			heel_right			toe_left			toe_right			shoulder_left			shoulder_right			elbow_left			elbow_right			wrist_left			wrist_right			
		X1	Y1	Z1	X2	Y2	Z2	X3	Y3	Z3	X4	Y4	Z4	X5	Y5	Z5	X6	Y6	Z6	X7	Y7	Z7	X8	Y8	Z8	X9	Y9	Z9	X10	Y10	Z10	X11	Y11	Z11	X12	Y12	Z12	X13	Y13	Z13	X14	Y14	Z14	X15	Y15	Z15	X16	Y16	Z16	X17	Y17	Z17	X18	Y18	Z18	X19	Y19	Z19	
1102	11.01000	178.647554	957.187456	71.841404	362.852669	1469.391126	102.493881	513.640296	1473.957722	155.840452	193.821209	952.405384	-4.986673	163.474064	961.969507	148.669456	256.355355	514.164679	-17.368086	272.288976	535.808461	192.245179	150.633091	114.251917	-50.899607	185.987478	131.060235	196.291160	109.925023	70.754847	-60.131927	145.294288	88.276373	198.612749	320.027018	28.085219	6.834648	353.172896	38.164170	154.097236	361.078730	1456.284826	-76.984768	271.195483	1455.040489	248.383731	144.541084	1340.979424	-169.528324	80.816667	1303.068008	187.011190	63.299314	1157.206833	-110.241121	11.177300	1151.389584	67.254224
1103	11.02000	176.822419	957.625967	71.579607	360.714336	1469.742341	103.806299	511.526944	1473.335837	157.798526	192.310418	952.927154	-5.137128	161.334569	962.324758	148.296305	254.072135	514.260114	-16.929702	270.392087	536.019065	192.913950	148.597508	114.103251	-50.209878	184.265937	131.086987	196.860480	107.962461	70.590734	-59.445576	143.568474	88.314235	199.104003	317.803046	27.902484	7.646565	351.604978	38.116666	155.049285	359.587160	1457.201750	-75.725954	267.988215	1454.833567	249.312095	144.503939	1341.373108	-171.297339	78.437105	1301.083577	186.005621	65.738422	1156.911147	-113.861985	9.088645	1148.155809	65.148305
1104	11.03000	174.997284	958.064478	71.317810	358.576003	1470.093555	105.118718	509.413593	1472.713952	159.756600	190.799627	953.448923	-5.287584	159.195074	962.680009	147.923154	251.788915	514.355548	-16.491319	268.495198	536.229669	193.582721	146.561924	113.954585	-49.520149	182.544396	131.113739	197.429800	105.999899	70.426620	-58.759225	141.842659	88.352097	199.595257	315.579074	27.719749	8.458481	350.037059	38.069162	156.001334	358.095589	1458.118673	-74.467140	264.780947	1454.626645	250.240459	144.466794	1341.766792	-173.066355	76.057544	1299.099145	185.000052	68.177530	1156.615460	-117.482850	6.999991	1144.922034	63.042387
1105	11.04000	173.172149	958.502989	71.056013	356.437670	1470.444770	106.431136	507.300241	1472.092068	161.714673	189.288836	953.970693	-5.438040	157.055580	963.035260	147.550004	249.505694	514.450983	-16.052935	266.598309	536.440272	194.251492	144.526341	113.805919	-48.830421	180.822855	131.140492	197.999120	104.037337	70.262506	-58.072874	140.116844	88.389959	200.086511	313.355102	27.537014	9.270398	348.469140	38.021658	156.953384	356.604018	1459.035596	-73.208327	261.573679	1454.419723	251.168823	144.429650	1342.160476	-174.835370	73.677982	1297.114714	183.994483	70.616639	1156.319774	-121.103715	4.911337	1141.688260	60.936468
1106	11.05000	171.347014	958.941500	70.794216	354.299338	1470.795984	107.743554	505.186890	1471.470183	163.672747	187.778046	954.492463	-5.588495	154.916085	963.390511	147.176853	247.222474	514.546418	-15.614552	264.701420	536.650876	194.920263	142.490758	113.657253	-48.140692	179.101313	131.167244	198.568440	102.074776	70.098392	-57.386523	138.391029	88.427821	200.577765	311.131130	27.354279	10.082315	346.901222	37.974155	157.905433	355.112448	1459.952520	-71.949513	258.366410	1454.212801	252.097187	144.392505	1342.554160	-176.604386	71.298420	1295.130282	182.988914	73.055747	1156.024087	-124.724579	2.822683	1138.454485	58.830549
1107	11.06000	169.521878	959.380011	70.532419	352.161005	1471.147199	109.055973	503.073538	1470.848298	165.630821	186.267255	955.014233	-5.738951	152.776590	963.745762	146.803702	244.939254	514.641852	-15.176169	262.804531	536.861480	195.589034	140.455175	113.508587	-47.450963	177.379772	131.193996	199.137760	100.112214	69.934279	-56.700172	136.665214	88.465683	201.069019	308.907158	27.171545	10.894231	345.333303	37.926651	158.857483	353.620877	1460.869443	-70.690699	255.159142	1454.005879	253.025550	144.355361	1342.947844	-178.373401	68.918858	1293.145851	181.983345	75.494855	1155.728401	-128.345444	0.734028	1135.220710	56.724630
1108	11.07000	167.483141	959.747119	70.348263	349.885723	1471.714676	110.003995	501.036984	1471.053001	166.234129	184.227791	955.449080	-5.816151	150.738537	964.045134	146.512605	242.567863	514.701401	-14.841532	261.065002	536.980791	195.886660	137.920932	113.387790	-46.416848	175.540473	131.186371	199.811624	97.597042	69.806114	-55.517206	134.844287	88.471221	201.793376	306.478060	27.028465	11.457480	343.511206	37.892439	159.564003	351.517784	1462.532546	-69.669925	252.456879	1453.394081	253.969299	145.382326	1342.689075	-179.936684	66.377257	1291.170642	181.904224	79.890959	1152.733441	-132.474450	-2.372449	1131.248057	56.446500
